# xmcd CD database file
#
# Track frame offsets:
#	150
#	536
#	10518
#	19844
#	28699
#	39989
#	52848
#	64479
#	72861
#	82892
#	99417
#	113473
#	129054
#	139323
#	151998
#	164575
#	180206
#	202317
#	212600
#
# Disc length: 2852 seconds
#
# Revision: 0
# Processed by: cddbd v1.5.2PL0 Copyright (c) Steve Scherf et al.
# Submitted via: CDex 2.02
#
DISCID=e90b2213
DTITLE=Steve Mann - Alive and Pickin'
DYEAR=2005
DGENRE=Blues
TTITLE0=Ash Grove Announcer
TTITLE1=Jelly Roll
TTITLE2=If You Live
TTITLE3=Soldier's Drill
TTITLE4=Elephant Song
TTITLE5=Amazing Gospel Tune
TTITLE6=Charlie James
TTITLE7=Rag Mama
TTITLE8=East Colorado
TTITLE9=Two Nineteen Train
TTITLE10=Trouble in Mind
TTITLE11=Winin' Boy Blues
TTITLE12=Her I Am Again
TTITLE13=Hasta Luego
TTITLE14=Mopper's Blues
TTITLE15=Holly
TTITLE16=Medley for David
TTITLE17=Prison Cell Blues
TTITLE18=Seven Foot Freakout
EXTD=YEAR: 2005
EXTT0=
EXTT1=
EXTT2=
EXTT3=
EXTT4=
EXTT5=
EXTT6=
EXTT7=
EXTT8=
EXTT9=
EXTT10=
EXTT11=
EXTT12=
EXTT13=
EXTT14=
EXTT15=
EXTT16=
EXTT17=
EXTT18=
PLAYORDER=
